<svg xmlns="http://www.w3.org/2000/svg" version="1.1" xmlns:xlink="http://www.w3.org/1999/xlink" viewBox="0 0 200 200" width="200" height="200"><metadata><rdf:RDF xmlns:rdf="http://www.w3.org/1999/02/22-rdf-syntax-ns#" xmlns:dc="http://purl.org/dc/elements/1.1/"><rdf:Description><dc:creator>RealFaviconGenerator</dc:creator><dc:source>https://realfavicongenerator.net</dc:source></rdf:Description></rdf:RDF></metadata><rect width="200" height="200" fill="url('#gradient')"></rect><defs><linearGradient id="gradient" gradientTransform="rotate(45 0.5 0.5)"><stop offset="0%" stop-color="#000000"></stop><stop offset="100%" stop-color="#000000"></stop></linearGradient></defs><g><g fill="#ba4712" transform="matrix(3.8146682188591385,0,0,3.8146682188591385,18.516378678175016,123.04063499703813)" stroke="#0e5278" stroke-width="0"><path d="M6.10 1.79L5.49 3.52Q1.97 2.53 1.97-1.03L1.97-1.03L1.97-2.96Q1.97-4.93 0.39-4.93L0.39-4.93L0.39-7.15Q1.97-7.15 1.97-9.13L1.97-9.13L1.97-11.18Q2.00-12.94 2.89-14.02Q3.77-15.11 5.49-15.60L5.49-15.60L6.10-13.88Q4.87-13.41 4.82-11.25L4.82-11.25L4.82-9.13Q4.82-6.94 3.02-6.04L3.02-6.04Q4.82-5.15 4.82-2.95L4.82-2.95L4.82-0.84Q4.87 1.32 6.10 1.79L6.10 1.79ZM7.57-14.22L12.07-14.22L15.24-4.33L18.41-14.22L22.92-14.22L22.92 0L19.48 0L19.48-3.32L19.81-10.12L16.38 0L14.11 0L10.66-10.13L11.00-3.32L11.00 0L7.57 0L7.57-14.22ZM35.67-12.46L28.95-2.64L35.74-2.64L35.74 0L24.67 0L24.67-1.81L31.45-11.57L24.63-11.57L24.63-14.22L35.67-14.22L35.67-12.46ZM37.24 3.52L36.62 1.79Q37.85 1.32 37.90-0.84L37.90-0.84L37.90-2.96Q37.90-5.16 39.72-6.04L39.72-6.04Q37.90-6.93 37.90-9.13L37.90-9.13L37.90-11.25Q37.85-13.41 36.62-13.88L36.62-13.88L37.24-15.60Q38.98-15.11 39.86-14.00Q40.74-12.89 40.75-11.09L40.75-11.09L40.75-9.13Q40.75-7.15 42.33-7.15L42.33-7.15L42.33-4.93Q40.75-4.93 40.75-2.97L40.75-2.97L40.75-0.89Q40.68 2.55 37.24 3.52L37.24 3.52Z"></path></g></g></svg>